<svg xmlns="http://www.w3.org/2000/svg" viewBox="0 420 390 296" width="390" height="296" preserveAspectRatio="xMidYMax slice">
  <g fill="#3A2270">
    <rect x="0" y="470" width="60" height="220"/><rect x="52" y="420" width="44" height="270"/>
    <rect x="150" y="490" width="40" height="200"/><rect x="232" y="460" width="38" height="230"/>
    <rect x="300" y="435" width="50" height="255"/><rect x="342" y="485" width="48" height="205"/>
  </g>
  <g fill="#2A1752">
    <rect x="18" y="530" width="70" height="160"/><rect x="100" y="550" width="56" height="140"/>
    <rect x="186" y="530" width="52" height="160"/><rect x="260" y="520" width="64" height="170"/>
    <rect x="330" y="560" width="60" height="130"/>
  </g>
  <g fill="#FFC94D">
    <rect x="28" y="546" width="8" height="10"/><rect x="44" y="546" width="8" height="10"/><rect x="28" y="570" width="8" height="10"/><rect x="60" y="594" width="8" height="10"/>
    <rect x="112" y="566" width="7" height="9"/><rect x="134" y="588" width="7" height="9"/>
    <rect x="196" y="548" width="7" height="9"/><rect x="214" y="572" width="7" height="9"/>
    <rect x="272" y="536" width="8" height="10"/><rect x="300" y="560" width="8" height="10"/>
    <rect x="344" y="576" width="7" height="9"/><rect x="366" y="600" width="7" height="9"/>
    <rect x="62" y="436" width="7" height="9"/><rect x="312" y="452" width="7" height="9"/>
  </g>
  <rect x="0" y="686" width="390" height="8" fill="#2E1A4A"/>
  <rect x="0" y="694" width="390" height="22" fill="#1C0F30"/>
</svg>
